<svg width="31" height="28" viewBox="0 0 31 28" fill="none" xmlns="http://www.w3.org/2000/svg">
<path d="M14.9987 3C10.7904 3 7.42057 4.96434 4.96745 7.30234C2.52995 9.61898 0.89974 12.3947 0.128906 14.3003C-0.0429688 14.722 -0.0429688 15.1917 0.128906 15.6134C0.89974 17.5191 2.52995 20.2948 4.96745 22.6114C7.42057 24.9494 10.7904 26.9138 14.9987 26.9138C19.207 26.9138 22.5768 24.9494 25.0299 22.6114C27.4674 20.2894 29.0977 17.5191 29.8737 15.6134C30.0456 15.1917 30.0456 14.722 29.8737 14.3003C29.0977 12.3947 27.4674 9.61898 25.0299 7.30234C22.5768 4.96434 19.207 3 14.9987 3ZM7.4987 14.9569C7.4987 12.9183 8.28887 10.9632 9.6954 9.52165C11.1019 8.08014 13.0096 7.27031 14.9987 7.27031C16.9878 7.27031 18.8955 8.08014 20.302 9.52165C21.7085 10.9632 22.4987 12.9183 22.4987 14.9569C22.4987 16.9955 21.7085 18.9506 20.302 20.3921C18.8955 21.8336 16.9878 22.6434 14.9987 22.6434C13.0096 22.6434 11.1019 21.8336 9.6954 20.3921C8.28887 18.9506 7.4987 16.9955 7.4987 14.9569ZM14.9987 11.5406C14.9987 13.4249 13.5039 14.9569 11.6654 14.9569C11.2956 14.9569 10.9414 14.8928 10.6081 14.7807C10.3216 14.6846 9.98828 14.8661 9.9987 15.1757C10.0143 15.544 10.0664 15.9124 10.1654 16.2807C10.8789 19.0137 13.6237 20.6364 16.2904 19.9051C18.957 19.1738 20.5404 16.3607 19.8268 13.6277C19.2487 11.4125 17.3372 9.92324 15.2122 9.8325C14.9102 9.82182 14.7331 10.1581 14.8268 10.457C14.9362 10.7987 14.9987 11.1616 14.9987 11.5406Z" fill="#2F72D7"/>
</svg>
