<svg width="24" height="97" viewBox="0 0 24 97" fill="none" xmlns="http://www.w3.org/2000/svg">
<path d="M13.2344 96.3C15.9062 92.7891 22 84.2797 22 79.5C22 73.7031 17.5208 69 12 69C6.47917 69 2 73.7031 2 79.5C2 84.2797 8.09375 92.7891 10.7656 96.3C11.4062 97.1367 12.5938 97.1367 13.2344 96.3ZM12 76C12.8841 76 13.7319 76.3687 14.357 77.0251C14.9821 77.6815 15.3333 78.5717 15.3333 79.5C15.3333 80.4283 14.9821 81.3185 14.357 81.9749C13.7319 82.6313 12.8841 83 12 83C11.1159 83 10.2681 82.6313 9.64298 81.9749C9.01786 81.3185 8.66667 80.4283 8.66667 79.5C8.66667 78.5717 9.01786 77.6815 9.64298 77.0251C10.2681 76.3687 11.1159 76 12 76Z" fill="#417DD8"/>
<circle cx="12" cy="12" r="12" fill="#D2712B"/>
<circle cx="12" cy="12" r="5" fill="white"/>
<g filter="url(#filter0_d_93_193)">
<line x1="12.5" y1="24" x2="12.5" y2="69" stroke="#939393" stroke-dasharray="2 2"/>
</g>
<defs>
<filter id="filter0_d_93_193" x="8" y="24" width="9" height="53" filterUnits="userSpaceOnUse" color-interpolation-filters="sRGB">
<feFlood flood-opacity="0" result="BackgroundImageFix"/>
<feColorMatrix in="SourceAlpha" type="matrix" values="0 0 0 0 0 0 0 0 0 0 0 0 0 0 0 0 0 0 127 0" result="hardAlpha"/>
<feOffset dy="4"/>
<feGaussianBlur stdDeviation="2"/>
<feComposite in2="hardAlpha" operator="out"/>
<feColorMatrix type="matrix" values="0 0 0 0 0 0 0 0 0 0 0 0 0 0 0 0 0 0 0.25 0"/>
<feBlend mode="normal" in2="BackgroundImageFix" result="effect1_dropShadow_93_193"/>
<feBlend mode="normal" in="SourceGraphic" in2="effect1_dropShadow_93_193" result="shape"/>
</filter>
</defs>
</svg>
