<svg width="62" height="1em" viewBox="0 0 62 61" fill="none" xmlns="http://www.w3.org/2000/svg">
<path d="M56.9625 10.85C56.1875 4.84375 50.9562 0 44.5625 0H17.4375C11.0437 0 5.8125 4.84375 5.0375 10.85C2.13125 11.8187 0 14.3375 0 17.4375V48.4375C0 52.1187 3.1 55.2188 6.78125 55.2188H7.55625C9.88125 58.125 13.5625 60.0625 17.4375 60.0625H44.5625C48.4375 60.0625 52.1187 58.125 54.4437 55.2188H55.2188C58.9 55.2188 62 52.1187 62 48.4375V17.4375C62 14.3375 59.8687 11.8187 56.9625 10.85ZM17.4375 1.9375H44.5625C49.7937 1.9375 54.0562 5.61875 55.025 10.6562C51.3438 10.85 48.4375 13.7562 48.4375 17.4375V48.4375H13.5625V17.4375C13.5625 13.7562 10.6562 10.85 6.975 10.6562C7.94375 5.61875 12.2062 1.9375 17.4375 1.9375ZM1.9375 48.4375V17.4375C1.9375 14.725 4.06875 12.5938 6.78125 12.5938C9.49375 12.5938 11.625 14.725 11.625 17.4375V48.4375C11.625 51.15 9.49375 53.2812 6.78125 53.2812C4.06875 53.2812 1.9375 51.15 1.9375 48.4375ZM44.5625 58.125H17.4375C14.3375 58.125 11.625 56.7687 9.49375 54.6375C11.2375 53.8625 12.5938 52.3125 13.175 50.375H48.6312C49.2125 52.3125 50.5687 53.8625 52.3125 54.6375C50.375 56.7687 47.6625 58.125 44.5625 58.125ZM60.0625 48.4375C60.0625 51.15 57.9312 53.2812 55.2188 53.2812C52.5062 53.2812 50.375 51.15 50.375 48.4375V17.4375C50.375 14.725 52.5062 12.5938 55.2188 12.5938C57.9312 12.5938 60.0625 14.725 60.0625 17.4375V48.4375Z" />
</svg>
