<svg width="36" height="25" viewBox="0 0 36 25" fill="none" xmlns="http://www.w3.org/2000/svg">
<path d="M1.778 0C2.76146 0 3.556 0.79432 3.556 1.7775V15.9975H16.002V7.11C16.002 6.12682 16.7965 5.3325 17.78 5.3325H30.226C33.1708 5.3325 35.56 7.72102 35.56 10.665V23.1075C35.56 24.0907 34.7655 24.885 33.782 24.885C32.7985 24.885 32.004 24.0907 32.004 23.1075V21.33H19.558H17.78H3.556V23.1075C3.556 24.0907 2.76146 24.885 1.778 24.885C0.794544 24.885 0 24.0907 0 23.1075V1.7775C0 0.79432 0.794544 0 1.778 0ZM9.779 5.3325C10.9579 5.3325 12.0885 5.80068 12.9221 6.63404C13.7557 7.46741 14.224 8.5977 14.224 9.77625C14.224 10.9548 13.7557 12.0851 12.9221 12.9185C12.0885 13.7518 10.9579 14.22 9.779 14.22C8.60011 14.22 7.46951 13.7518 6.63591 12.9185C5.80231 12.0851 5.334 10.9548 5.334 9.77625C5.334 8.5977 5.80231 7.46741 6.63591 6.63404C7.46951 5.80068 8.60011 5.3325 9.779 5.3325Z" fill="#A2ABB3"/>
</svg>
