<svg width="14" height="27" viewBox="0 0 14 27" fill="none" xmlns="http://www.w3.org/2000/svg">
<path d="M4.58906 0H8.76094C9.45451 0 10.0125 0.556943 10.0125 1.24922V3.33125H3.3375V1.24922C3.3375 0.556943 3.89549 0 4.58906 0ZM0 7.8961C0 7.08411 0.469336 6.34499 1.20984 5.99625L2.48227 5.40287C3.0559 5.13741 3.68168 4.99687 4.31268 4.99687H9.03732C9.66832 4.99687 10.2941 5.13741 10.8677 5.40287L12.1402 5.99625C12.8807 6.33979 13.35 7.07891 13.35 7.8961C13.35 8.64563 12.9589 9.30147 12.3644 9.67103C12.9641 10.1291 13.35 10.8474 13.35 11.6594C13.35 12.5286 12.9067 13.2938 12.2288 13.7414C12.9015 14.189 13.35 14.9542 13.35 15.8234C13.35 16.6927 12.9067 17.4578 12.2288 17.9055C12.9015 18.3531 13.35 19.1183 13.35 19.9875C13.35 20.8567 12.9067 21.6219 12.2288 22.0695C12.9015 22.5172 13.35 23.2823 13.35 24.1516C13.35 25.5309 12.2288 26.65 10.8469 26.65H2.50313C1.12119 26.65 0 25.5309 0 24.1516C0 23.2823 0.443262 22.5172 1.12119 22.0695C0.443262 21.6219 0 20.8567 0 19.9875C0 19.1183 0.443262 18.3531 1.12119 17.9055C0.443262 17.4578 0 16.6927 0 15.8234C0 14.9542 0.443262 14.189 1.12119 13.7414C0.443262 13.2938 0 12.5286 0 11.6594C0 10.8474 0.385898 10.1291 0.985605 9.67103C0.391113 9.30147 0 8.64563 0 7.8961ZM3.3375 12.4922C3.3375 12.9502 3.71297 13.325 4.17188 13.325H9.17813C9.63703 13.325 10.0125 12.9502 10.0125 12.4922C10.0125 12.0341 9.63703 11.6594 9.17813 11.6594H4.17188C3.71297 11.6594 3.3375 12.0341 3.3375 12.4922ZM4.17188 18.3219C3.71297 18.3219 3.3375 18.6966 3.3375 19.1547C3.3375 19.6127 3.71297 19.9875 4.17188 19.9875H9.17813C9.63703 19.9875 10.0125 19.6127 10.0125 19.1547C10.0125 18.6966 9.63703 18.3219 9.17813 18.3219H4.17188Z" fill="#A2ABB3"/>
</svg>
