<svg width="27" height="20" viewBox="0 0 27 20" fill="none" xmlns="http://www.w3.org/2000/svg">
<path d="M2.25842 7.45482C5.13325 4.69628 9.033 3.00031 13.3327 3.00031C17.6325 3.00031 21.5322 4.69628 24.407 7.45482C24.9403 7.9632 25.782 7.94653 26.2903 7.41732C26.7986 6.88811 26.7819 6.04221 26.2528 5.53384C22.903 2.31276 18.3491 0.333435 13.3327 0.333435C8.31638 0.333435 3.7625 2.31276 0.40854 5.52967C-0.120593 6.04221 -0.137259 6.88395 0.371043 7.41732C0.879344 7.9507 1.72512 7.96736 2.25426 7.45482H2.25842ZM13.3327 9.6675C15.6993 9.6675 17.8575 10.5467 19.5073 12.001C20.0615 12.4886 20.9031 12.4344 21.3906 11.8843C21.878 11.3343 21.8239 10.4884 21.2739 10.0009C19.1574 8.13404 16.3742 7.00062 13.3327 7.00062C10.2913 7.00062 7.5081 8.13404 5.39573 10.0009C4.8416 10.4884 4.7916 11.3301 5.27907 11.8843C5.76654 12.4385 6.60815 12.4886 7.16228 12.001C8.80802 10.5467 10.9662 9.6675 13.3369 9.6675H13.3327ZM15.9992 16.3347C15.9992 15.6274 15.7183 14.9491 15.2182 14.4489C14.7182 13.9488 14.0399 13.6678 13.3327 13.6678C12.6255 13.6678 11.9473 13.9488 11.4472 14.4489C10.9472 14.9491 10.6662 15.6274 10.6662 16.3347C10.6662 17.042 10.9472 17.7203 11.4472 18.2205C11.9473 18.7206 12.6255 19.0016 13.3327 19.0016C14.0399 19.0016 14.7182 18.7206 15.2182 18.2205C15.7183 17.7203 15.9992 17.042 15.9992 16.3347Z" fill="#8F979E"/>
</svg>
