<svg width="51" height="51" viewBox="0 0 51 51" fill="none" xmlns="http://www.w3.org/2000/svg">
<path d="M25.5 1C19.0043 1.00671 12.7765 3.59011 8.1833 8.18328C3.59011 12.7765 1.00671 19.0042 1 25.4999C1 32.0461 3.54673 38.1973 8.17285 42.8234C10.4428 45.1062 13.1431 46.9159 16.1174 48.1478C19.0916 49.3796 22.2807 50.0092 25.5 49.9999C31.9957 49.9932 38.2235 47.4098 42.8167 42.8166C47.4099 38.2234 49.9933 31.9957 50 25.4999C49.9933 19.0042 47.4099 12.7765 42.8167 8.18328C38.2235 3.59011 31.9957 1.00671 25.5 1ZM10.6906 42.664C12.3839 40.461 14.5529 38.6688 17.0356 37.4212C19.5184 36.1735 22.2508 35.5027 25.0291 35.4586C25.116 35.4622 25.1993 35.484 25.2863 35.484H25.3696C25.4493 35.484 25.5217 35.4622 25.6014 35.4586C28.4181 35.5065 31.1863 36.1996 33.6934 37.4845C36.2004 38.7694 38.3794 40.6119 40.0631 42.8705C35.9896 46.3083 30.8302 48.1924 25.5 48.1886C20.0579 48.1983 14.7967 46.2356 10.6906 42.664ZM25.2971 33.6292C25.2066 33.6292 25.1196 33.6437 25.0291 33.6473C22.9145 33.5756 20.9114 32.6821 19.4454 31.1566C17.9794 29.631 17.1662 27.5939 17.1788 25.4782C17.1826 24.4073 17.3977 23.3476 17.812 22.36C18.2262 21.3724 18.8313 20.4763 19.5926 19.723C20.3539 18.9698 21.2564 18.3743 22.2484 17.9706C23.2404 17.567 24.3023 17.3631 25.3732 17.3707C26.4442 17.3745 27.5038 17.5897 28.4914 18.0039C29.479 18.4181 30.3752 19.0233 31.1284 19.7846C31.8816 20.5459 32.4772 21.4484 32.8808 22.4404C33.2845 23.4323 33.4883 24.4942 33.4807 25.5652C33.4807 29.9558 29.9667 33.5241 25.6051 33.6509C25.5036 33.6473 25.4022 33.6292 25.2971 33.6292ZM41.4071 41.6533C38.6059 37.9567 34.6214 35.3328 30.1189 34.2197C31.6857 33.3611 32.9926 32.097 33.9028 30.5596C34.813 29.0223 35.2928 27.2684 35.292 25.4818C35.2878 24.1732 35.0254 22.8782 34.52 21.671C34.0146 20.4639 33.276 19.3683 32.3466 18.4469C31.4172 17.5256 30.3152 16.7966 29.1037 16.3018C27.8922 15.8069 26.5949 15.5559 25.2863 15.563C23.9776 15.5673 22.6826 15.8297 21.4754 16.3351C20.2683 16.8405 19.1727 17.579 18.2514 18.5085C17.33 19.4379 16.6011 20.5399 16.1062 21.7514C15.6113 22.9629 15.3603 24.2601 15.3674 25.5688C15.3741 27.3387 15.8556 29.0743 16.7617 30.5947C17.6678 32.1151 18.9653 33.3644 20.5189 34.2124C16.0923 35.2997 12.1607 37.8455 9.35746 41.4396C5.15288 37.2047 2.79995 31.4748 2.81495 25.5072C2.82166 19.4919 5.21422 13.7248 9.46772 9.47133C13.7212 5.21784 19.4883 2.82528 25.5036 2.81857C31.519 2.82528 37.286 5.21784 41.5395 9.47133C45.793 13.7248 48.1856 19.4919 48.1923 25.5072C48.1908 28.5143 47.5899 31.491 46.4249 34.2632C45.2599 37.0355 43.5541 39.5478 41.4071 41.6533Z" fill="#1A4482"/>
</svg>