<svg height="1em" viewBox="0 0 21 21" fill="none" xmlns="http://www.w3.org/2000/svg">
<g clip-path="url(#clip0_431_481)">
<path d="M17.9756 8.53125C17.9756 10.4139 17.3644 12.1529 16.3349 13.5639L21.5275 18.7605C22.0402 19.2732 22.0402 20.1059 21.5275 20.6186C21.0148 21.1313 20.1822 21.1313 19.6695 20.6186L14.4769 15.4219C13.066 16.4555 11.3269 17.0625 9.4443 17.0625C4.73161 17.0625 0.913055 13.2439 0.913055 8.53125C0.913055 3.81855 4.73161 0 9.4443 0C14.157 0 17.9756 3.81855 17.9756 8.53125ZM9.4443 14.4375C12.705 14.4375 15.3506 11.792 15.3506 8.53125C15.3506 5.27051 12.705 2.625 9.4443 2.625C6.18356 2.625 3.53806 5.27051 3.53806 8.53125C3.53806 11.792 6.18356 14.4375 9.4443 14.4375Z" fill="white"/>
</g>
<defs>
<clipPath id="clip0_431_481">
<path d="M0 0H21V13C21 17.4183 17.4183 21 13 21H0V0Z" fill="white"/>
</clipPath>
</defs>
</svg>
