<svg height="1em" viewBox="0 0 46 46" fill="none" xmlns="http://www.w3.org/2000/svg">
<g clip-path="url(#clip0_104_261)">
<circle cx="23" cy="23" r="23" fill="#33578C"/>
<path d="M33.1699 18.6326C33.7623 18.1142 33.7623 17.2725 33.1699 16.7541L28.6205 12.7734C28.0281 12.255 27.0661 12.255 26.4737 12.7734C25.8813 13.2917 25.8813 14.1335 26.4737 14.6518L28.4356 16.3685H13.9011C13.0623 16.3685 12.3846 16.9615 12.3846 17.6954C12.3846 18.4294 13.0623 19.0223 13.9011 19.0223H28.4356L26.4737 20.739C25.8813 21.2574 25.8813 22.0991 26.4737 22.6175C27.0661 23.1358 28.0281 23.1358 28.6205 22.6175L33.1699 18.6367V18.6326ZM17.3748 33.2287C17.9672 33.747 18.9292 33.747 19.5216 33.2287C20.1139 32.7104 20.1139 31.8686 19.5216 31.3503L17.5644 29.6377H32.0989C32.9377 29.6377 33.6154 29.0448 33.6154 28.3108C33.6154 27.5768 32.9377 26.9839 32.0989 26.9839H17.5644L19.5263 25.2672C20.1187 24.7488 20.1187 23.9071 19.5263 23.3887C18.9339 22.8704 17.9719 22.8704 17.3795 23.3887L12.8301 27.3695C12.2377 27.8878 12.2377 28.7296 12.8301 29.2479L17.3795 33.2287H17.3748Z" fill="white"/>
</g>
<defs>
<clipPath id="clip0_104_261">
<rect width="46" height="46" fill="white"/>
</clipPath>
</defs>
</svg>