<svg width="41" height="106" viewBox="0 0 41 106" fill="none" xmlns="http://www.w3.org/2000/svg">
<path d="M14.6355 104.768C17.5278 100.967 24.1241 91.7562 24.1241 86.5823C24.1241 80.3073 19.2755 75.2163 13.2994 75.2163C7.32319 75.2163 2.47461 80.3073 2.47461 86.5823C2.47461 91.7562 9.07094 100.967 11.9632 104.768C12.6566 105.674 13.9421 105.674 14.6355 104.768ZM13.2994 82.7936C14.2563 82.7936 15.1741 83.1928 15.8508 83.9033C16.5274 84.6138 16.9076 85.5775 16.9076 86.5823C16.9076 87.5871 16.5274 88.5508 15.8508 89.2613C15.1741 89.9718 14.2563 90.3709 13.2994 90.3709C12.3424 90.3709 11.4246 89.9718 10.7479 89.2613C10.0713 88.5508 9.6911 87.5871 9.6911 86.5823C9.6911 85.5775 10.0713 84.6138 10.7479 83.9033C11.4246 83.1928 12.3424 82.7936 13.2994 82.7936Z" fill="#417DD8"/>
<circle cx="13.3002" cy="13.5151" r="12.9897" fill="#D2712B"/>
<circle cx="13.301" cy="13.5152" r="5.41237" fill="white"/>
<line x1="13.7988" y1="26.5049" x2="13.7988" y2="75.2162" stroke="#939393" stroke-dasharray="2 2"/>
<line x1="19.25" y1="50.6313" x2="40.8995" y2="50.6313" stroke="#939393" stroke-dasharray="2 2"/>
</svg>
