<svg width="20" height="20" viewBox="0 0 10 12" fill="none" xmlns="http://www.w3.org/2000/svg">
    <path
        d="M3.01786 0.414844C3.13839 0.159375 3.38616 0 3.65625 0H6.34375C6.61384 0 6.86161 0.159375 6.98214 0.414844L7.14286 0.75H9.28571C9.6808 0.75 10 1.08516 10 1.5C10 1.91484 9.6808 2.25 9.28571 2.25H0.714286C0.319196 2.25 0 1.91484 0 1.5C0 1.08516 0.319196 0.75 0.714286 0.75H2.85714L3.01786 0.414844ZM0.714286 3H9.28571V10.5C9.28571 11.3273 8.64509 12 7.85714 12H2.14286C1.35491 12 0.714286 11.3273 0.714286 10.5V3ZM2.85714 4.5C2.66071 4.5 2.5 4.66875 2.5 4.875V10.125C2.5 10.3313 2.66071 10.5 2.85714 10.5C3.05357 10.5 3.21429 10.3313 3.21429 10.125V4.875C3.21429 4.66875 3.05357 4.5 2.85714 4.5ZM5 4.5C4.80357 4.5 4.64286 4.66875 4.64286 4.875V10.125C4.64286 10.3313 4.80357 10.5 5 10.5C5.19643 10.5 5.35714 10.3313 5.35714 10.125V4.875C5.35714 4.66875 5.19643 4.5 5 4.5ZM7.14286 4.5C6.94643 4.5 6.78571 4.66875 6.78571 4.875V10.125C6.78571 10.3313 6.94643 10.5 7.14286 10.5C7.33929 10.5 7.5 10.3313 7.5 10.125V4.875C7.5 4.66875 7.33929 4.5 7.14286 4.5Z"
        fill="#FB6C6C" />
</svg>
    