<svg width="22" height="1em" viewBox="0 0 22 22" fill="none" xmlns="http://www.w3.org/2000/svg">
<path d="M17.9746 8.53125C17.9746 10.4139 17.3635 12.1529 16.334 13.5639L21.5266 18.7605C22.0393 19.2732 22.0393 20.1059 21.5266 20.6186C21.0139 21.1313 20.1812 21.1313 19.6686 20.6186L14.476 15.4219C13.065 16.4555 11.326 17.0625 9.44336 17.0625C4.73066 17.0625 0.912109 13.2439 0.912109 8.53125C0.912109 3.81855 4.73066 0 9.44336 0C14.1561 0 17.9746 3.81855 17.9746 8.53125ZM9.44336 14.4375C12.7041 14.4375 15.3496 11.792 15.3496 8.53125C15.3496 5.27051 12.7041 2.625 9.44336 2.625C6.18262 2.625 3.53711 5.27051 3.53711 8.53125C3.53711 11.792 6.18262 14.4375 9.44336 14.4375Z" fill="#9F9F9F"/>
</svg>
