<svg width="18" height="1.2em" viewBox="0 0 18 17" fill="none" xmlns="http://www.w3.org/2000/svg">
<g clip-path="url(#clip0_235_532)">
<path d="M10.6702 1.21418C10.6702 0.50302 10.0956 -0.0715332 9.38449 -0.0715332C8.67333 -0.0715332 8.09877 0.50302 8.09877 1.21418V6.9999H2.31306C1.6019 6.9999 1.02734 7.57445 1.02734 8.28561C1.02734 8.99677 1.6019 9.57132 2.31306 9.57132H8.09877V15.357C8.09877 16.0682 8.67333 16.6428 9.38449 16.6428C10.0956 16.6428 10.6702 16.0682 10.6702 15.357V9.57132H16.4559C17.1671 9.57132 17.7416 8.99677 17.7416 8.28561C17.7416 7.57445 17.1671 6.9999 16.4559 6.9999H10.6702V1.21418Z" fill="white"/>
</g>
<defs>
<clipPath id="clip0_235_532">
<rect width="18" height="17" fill="white"/>
</clipPath>
</defs>
</svg>
