<svg width="27" height="1.5em" viewBox="0 0 27 30" fill="none" xmlns="http://www.w3.org/2000/svg">
<path d="M7.92188 1.03711C8.23828 0.398438 8.88867 0 9.59766 0H16.6523C17.3613 0 18.0117 0.398438 18.3281 1.03711L18.75 1.875H24.375C25.4121 1.875 26.25 2.71289 26.25 3.75C26.25 4.78711 25.4121 5.625 24.375 5.625H1.875C0.837891 5.625 0 4.78711 0 3.75C0 2.71289 0.837891 1.875 1.875 1.875H7.5L7.92188 1.03711ZM1.875 7.5H24.375V26.25C24.375 28.3184 22.6934 30 20.625 30H5.625C3.55664 30 1.875 28.3184 1.875 26.25V7.5ZM7.5 11.25C6.98438 11.25 6.5625 11.6719 6.5625 12.1875V25.3125C6.5625 25.8281 6.98438 26.25 7.5 26.25C8.01562 26.25 8.4375 25.8281 8.4375 25.3125V12.1875C8.4375 11.6719 8.01562 11.25 7.5 11.25ZM13.125 11.25C12.6094 11.25 12.1875 11.6719 12.1875 12.1875V25.3125C12.1875 25.8281 12.6094 26.25 13.125 26.25C13.6406 26.25 14.0625 25.8281 14.0625 25.3125V12.1875C14.0625 11.6719 13.6406 11.25 13.125 11.25ZM18.75 11.25C18.2344 11.25 17.8125 11.6719 17.8125 12.1875V25.3125C17.8125 25.8281 18.2344 26.25 18.75 26.25C19.2656 26.25 19.6875 25.8281 19.6875 25.3125V12.1875C19.6875 11.6719 19.2656 11.25 18.75 11.25Z" fill="#FB6C6C"/>
</svg>
