<svg width="46" height="2em" viewBox="0 0 46 46" fill="none" xmlns="http://www.w3.org/2000/svg">
<g clip-path="url(#clip0_176_752)">
<circle cx="23" cy="23" r="23" fill="#33578C"/>
<g clip-path="url(#clip1_176_752)">
<path d="M31.9895 23.4269C32.5021 22.9142 32.5021 22.0815 31.9895 21.5688L25.427 15.0063C24.9143 14.4937 24.0816 14.4937 23.5689 15.0063C23.0563 15.519 23.0563 16.3517 23.5689 16.8644L27.8961 21.1874H15.3125C14.5865 21.1874 14 21.7739 14 22.4999C14 23.2259 14.5865 23.8124 15.3125 23.8124H27.892L23.573 28.1354C23.0604 28.6481 23.0604 29.4808 23.573 29.9935C24.0857 30.5062 24.9184 30.5062 25.4311 29.9935L31.9936 23.431L31.9895 23.4269Z" fill="white"/>
</g>
</g>
<defs>
<clipPath id="clip0_176_752">
<rect width="46" height="46" fill="white"/>
</clipPath>
<clipPath id="clip1_176_752">
<rect width="18.375" height="21" fill="white" transform="translate(14 12)"/>
</clipPath>
</defs>
</svg>
