<svg width="20" height="20" viewBox="0 0 21 21" fill="none" xmlns="http://www.w3.org/2000/svg">
<path d="M12 3.28125C12 2.55527 11.3297 1.96875 10.5 1.96875C9.67031 1.96875 9 2.55527 9 3.28125V9.1875H2.25C1.42031 9.1875 0.75 9.77402 0.75 10.5C0.75 11.226 1.42031 11.8125 2.25 11.8125H9V17.7188C9 18.4447 9.67031 19.0312 10.5 19.0312C11.3297 19.0312 12 18.4447 12 17.7188V11.8125H18.75C19.5797 11.8125 20.25 11.226 20.25 10.5C20.25 9.77402 19.5797 9.1875 18.75 9.1875H12V3.28125Z" fill="white"/>
</svg>
