<svg width="20" height="20" viewBox="0 0 20 23" fill="none" xmlns="http://www.w3.org/2000/svg">
<g clip-path="url(#clip0_662_1217)">
<path d="M18.4219 0.941894C17.5664 -0.00862629 16.1836 -0.00862629 15.3281 0.941894L14.1523 2.24398L17.9766 6.49311L19.1523 5.18669C20.0078 4.23616 20.0078 2.69971 19.1523 1.74919L18.4219 0.941894ZM6.73437 10.4905C6.49609 10.7553 6.3125 11.0808 6.20703 11.441L5.05078 15.2952C4.9375 15.6685 5.02734 16.0808 5.27734 16.3629C5.52734 16.645 5.89844 16.7405 6.23828 16.6146L9.70703 15.3299C10.0273 15.2084 10.3203 15.0087 10.5625 14.744L17.0977 7.47835L13.2695 3.22488L6.73437 10.4905ZM3.75 2.77783C1.67969 2.77783 0 4.64415 0 6.9445V18.0556C0 20.356 1.67969 22.2223 3.75 22.2223H13.75C15.8203 22.2223 17.5 20.356 17.5 18.0556V13.8889C17.5 13.1207 16.9414 12.5001 16.25 12.5001C15.5586 12.5001 15 13.1207 15 13.8889V18.0556C15 18.8238 14.4414 19.4445 13.75 19.4445H3.75C3.05859 19.4445 2.5 18.8238 2.5 18.0556V6.9445C2.5 6.17627 3.05859 5.55561 3.75 5.55561H7.5C8.19141 5.55561 8.75 4.93495 8.75 4.16672C8.75 3.39849 8.19141 2.77783 7.5 2.77783H3.75Z" fill="#1F84BD"/>
</g>
<defs>
<clipPath id="clip0_662_1217">
<rect width="20" height="22.2222" fill="white"/>
</clipPath>
</defs>
</svg>
